<?xml version="1.0" encoding="UTF-8" standalone="no"?>
<svg
   xmlns:dc="http://purl.org/dc/elements/1.1/"
   xmlns:cc="http://creativecommons.org/ns#"
   xmlns:rdf="http://www.w3.org/1999/02/22-rdf-syntax-ns#"
   xmlns:svg="http://www.w3.org/2000/svg"
   xmlns="http://www.w3.org/2000/svg"
   viewBox="0 0 122.94667 185.48"
   height="185.48"
   width="122.94667"
   xml:space="preserve"
   id="svg2"
   version="1.1"><metadata
     id="metadata8"><rdf:RDF><cc:Work
         rdf:about=""><dc:format>image/svg+xml</dc:format><dc:type
           rdf:resource="http://purl.org/dc/dcmitype/StillImage" /></cc:Work></rdf:RDF></metadata><defs
     id="defs6" /><g
     transform="matrix(1.3333333,0,0,-1.3333333,0,185.48)"
     id="g10"><g
       transform="scale(0.1)"
       id="g12"><path
         id="path14"
         style="fill:#ffffff;fill-opacity:1;fill-rule:nonzero;stroke:none"
         d="m 874.563,960.008 -275.708,-0.289 c -17.671,13.597 -37.546,25.492 -53.652,30.367 -33.64,10.154 -29.765,19.944 -28.101,22.414 3.171,1.6 7.847,3.1 14.586,4.41 10.871,2.07 26.339,-1.73 26.339,-1.73 24.141,-4.2 34.383,7.71 15.086,21.79 -10.398,7.55 -16.851,9.78 -46.172,22.73 -19.199,8.48 -16.531,29.96 -9.05,30.74 11.589,1.2 42.851,-8.6 20.879,16.04 0,0 -17.032,16.79 -29.368,21.46 -12.336,4.71 -0.078,12.09 4.368,14.4 4.453,2.32 20.046,6.64 -1.817,23.24 0,0 -38.375,23.3 -23.336,34.26 15.492,11.31 21.488,20.07 7.113,21.06 -10.183,0.72 -20.109,4.4 -17.546,14.68 0.621,3.63 9.343,9.59 12.254,13.22 3.839,4.79 0.539,6.46 -1.571,7.02 -1.137,0.26 -2.465,0.4 -4.097,0.4 -7.579,-0.03 -11.993,4.35 -15.868,14.62 -4.664,18.66 -7.886,35.42 -7.886,35.42 -0.192,0 -0.407,0.06 -0.657,0.06 0,0 0,0 -0.015,0 -3.301,-0.02 -3.453,-2.12 -5.731,-12.07 -7.488,-33 -11.218,-45.64 -24.109,-45.62 -1.68,0.01 -3.008,-0.13 -4.141,-0.34 -2.14,-0.6 -5.363,-2.27 -1.539,-7.04 5.293,-6.62 17.793,-12.48 18.035,-17.25 0.239,-4.15 -3.234,-7.9 -8.168,-12.48 -5.074,-5.09 -17.699,-13.52 -17.699,-13.52 0,0 -15.625,-9.65 -18.375,-15 -3.465,-8.02 14.391,-7.55 14.391,-7.55 31.82,-1.21 18.469,-12.93 13.269,-14.75 -8.211,-2.9 -15.05,-4.74 -23.386,-9.46 -10.469,-6.71 -20.957,-17.02 -20.957,-17.02 -22,-24.66 9.25,-14.86 20.859,-16.06 7.473,-0.77 10.168,-22.26 -9.07,-30.72 -12.278,-5.44 -20.524,-8.99 -26.766,-11.8 -3.144,-1.69 -14.328,-7.94 -21.172,-17.76 -7.316,-10.52 14.785,-7.11 29.918,-8.3 9.86,-0.77 21.485,7.29 28.582,6.59 8.883,-0.92 11.637,-2.77 13.035,-8.44 1.543,-6.13 -2.945,-12.24 -9.547,-17.62 -1.949,-2.5 -5.324,-4.53 -7.621,-5.53 -0.164,-0.08 -0.351,-0.17 -0.535,-0.27 -9.273,-5.76 -19.398,-10.13 -23.531,-11.8 -30.211,-16.201 -75.063,-43.334 -93.625,-64.135 -13.84,-15.496 -2.477,-23.949 3.48,-21.293 5.985,2.695 16.227,8.695 32.274,5.512 12.953,-2.559 29.945,1.711 43.226,5.207 h 0.008 c 11.727,2.508 23.055,22.133 27.653,14.59 11.05,-18.055 -7.895,-39.27 -15.469,-46.653 -14.715,-19.613 -55.524,-37.429 -71.914,-50.722 -19.067,-15.411 -26.875,-35.59 -32.063,-75.301 -5.136,-39.715 15.5,-11.352 15.5,-11.352 5.149,6.188 17.012,20.231 47.438,20.231 30.441,0 36.219,8.75 46.898,14.824 19.414,10.996 9.317,-14.824 9.317,-14.824 -12.907,-28.66 -36,-28.871 -61.793,-45.074 -2.297,-1.676 -4.411,-3.829 -9.301,-8.668 -10.86,-10.676 -7.406,-15.075 -1.461,-14.172 5.894,0.894 15.332,-2.778 25.164,-2.457 10.281,0.343 18.93,2.422 30.453,7.422 11.52,5.015 17.391,14.355 24.746,9.64 4.914,-3.14 3.957,-11.133 2.754,-16.14 -0.34,-5.829 -7.672,-16.258 -11.789,-20.852 -6.937,-7.836 -45.539,-33.059 -59.047,-39.258 -1.836,-0.832 -3.617,-1.699 -5.355,-2.617 -0.512,-0.363 -1.071,-0.742 -1.739,-1.086 -17.785,-10.098 -29.593,-25.371 -29.593,-25.371 -3.121,-4.5 -19.243,-30.418 2.808,-19.207 22.086,11.199 51.496,-7.766 66.082,-0.539 8.578,4.23 5.629,-13.067 5.332,-14.707 -0.058,-5.789 -1.019,-11.68 -1.968,-13.613 -6.469,-12.832 -11.387,-12 -34.782,-22.02 H 192.832 L 47.5234,705.355 V 1179.46 L 218.289,1343.57 H 703.762 L 874.563,1179.19 Z M 529.871,694.961 c 17.942,-4.707 27.133,-17.188 57.797,-8.926 0,0 12.73,2.512 20.477,-1.492 7.8,-4.016 28.144,1.543 -9.817,28.164 -27.676,19.367 -52.762,17.781 -66.473,48.145 0,0 -5.039,9.125 -2.625,13.636 l -0.031,0.004 c 1.121,2.653 8.172,9.664 17.871,6.227 9.493,-3.367 44.278,-18.317 58.821,-21.77 7.8,-1.781 13.738,-4.636 18.281,-7.683 6.465,-3.864 26.512,-11.118 26.433,3.773 -3.398,24.742 -8,41.641 -15.996,54.598 L 729.23,809.602 874.563,664.348 V 211.898 L 703.762,47.5391 655.77,47.5586 c -25.047,0.2812 -62.567,15.1406 -74.071,28.8906 -24.969,29.8518 -38.406,26.5198 -56.094,44.2108 -21.574,21.57 -26.566,46.961 -27.714,73.641 0,89.699 0,118.949 0,118.949 0,0 -1.907,24.09 17.214,9.211 19.067,-14.852 29.797,-13.18 61.997,-10.68 32.207,2.551 67.515,-26.449 86.043,-37.781 18.527,-11.328 56.25,-39.57 17.265,59.051 -7.527,19.051 -30.012,32.258 -41.601,38.031 -7.121,3.816 -17.559,16.758 -7.903,27.719 0,0 19.328,17.078 8.852,28.738 -3.449,4.18 -12.082,8.262 -31.106,10.625 -21.789,2.676 -44.589,16.055 -53.457,37.363 -1.711,13.946 17.317,19.141 26.809,12.735 9.812,-6.524 30.547,-13.719 42.027,-15.293 35.981,-4.93 31.887,-1.727 27.91,9.504 -2.468,6.941 -7.996,23.465 -31.503,35.789 -49.469,25.871 -55.301,18.937 -63.856,35.898 -2.441,4.856 -4.773,34.445 7.078,25.559 0.18,-0.137 0.258,-0.196 0.403,-0.266 2.253,-2.39 4.89,-5.242 8.125,-7.715 12.363,-9.57 22.167,-10.82 39.523,-10.398 17.332,0.351 19.324,-6.66 26.316,-9.875 6.985,-3.223 16.336,-8.965 7.743,17.109 -9.09,27.598 -24.325,49.317 -53.629,62.715 -13.496,6.211 -52.09,31.426 -59.036,39.25 -6.464,7.305 -21.152,29.152 -3.234,24.422 z M 422.828,341.23 v -11.48 l -0.031,-0.02 c 0,-4.289 0,-10.019 0,-17.218 l -0.106,0.738 c 0,0 0,-18.719 0,-72.039 -0.433,-34.57 -2.933,-66.379 -16.937,-80.34 -13.266,-13.269 -34.145,-28.832 -45.981,-47.16 C 344.121,89.5 324.836,50.2813 273.215,47.7813 L 218.289,47.8008 47.5234,212.199 47.6016,407.168 H 263.883 c 0.019,0 0.027,0.012 0.039,0.02 h 32.57 c -3.48,-3.36 -7.422,-5.106 -7.422,-5.106 0,0 -38.457,-15.203 -48.777,-41.293 -7.398,-18.68 -12.023,-32.801 -14.539,-43.367 l 0.129,-0.012 c -5.309,-23.328 7.738,-33.09 16.969,-21.219 14.875,19.09 66.914,45.649 84.925,47.27 18.086,1.559 49.387,0 67.969,19.641 18.59,19.636 27.082,19.078 27.082,11.898 v -31.051 c 0.024,-1.238 0.024,-2.258 0,-2.719 z M 898.32,1189.29 713.313,1367.32 H 208.766 L 23.7617,1189.58 V 695.531 l 159.2223,-159.398 102.68,-0.039 c -11.531,-10.137 -15.082,-20.703 -16.934,-25.887 -3.98,-11.242 -8.054,-14.445 27.926,-9.512 11.481,1.571 32.246,8.778 42.012,15.301 9.508,6.418 28.52,1.211 26.816,-12.742 -8.875,-21.32 -31.64,-34.668 -53.445,-37.363 -50.008,-6.172 -28.43,-24.473 -28.43,-24.473 5.539,-3.75 9.496,-7.277 12.305,-10.527 h -24.351 c -0.004,0.019 -0.024,0.027 -0.024,0.039 H 23.8672 L 23.7617,202.09 208.734,23.7617 H 713.313 L 898.32,201.789 V 674.191 L 739.063,833.359 610.422,833.348 c -10.254,6.648 -24.082,14.172 -36.66,22.285 -0.032,0.031 -0.063,0.039 -0.117,0.062 -4.829,2.774 -9.582,6.203 -14.067,10.016 -3.824,3.023 -7.242,6.137 -10.058,9.262 -11.161,11.347 -19.5,23.261 -21.707,28.695 -4.09,10.078 -3.157,22.812 6.179,17.539 23.774,-13.48 62.863,-16.019 77.356,-16.477 1.648,0.028 13.371,-1.277 16.093,-2.14 2.911,-1.133 7.442,-3.277 7.442,-3.277 5.84,-2.458 16.472,5.531 4.226,20.246 -3.25,5.05 -8.023,10.765 -13.75,16.691 l 272.961,-0.023 v 253.063" /><path
         id="path16"
         style="fill:#100f0d;fill-opacity:1;fill-rule:nonzero;stroke:none"
         d="m 533.105,670.539 c 6.946,-7.824 45.54,-33.039 59.036,-39.25 29.304,-13.398 44.539,-35.117 53.629,-62.715 8.593,-26.074 -0.758,-20.332 -7.743,-17.109 -6.992,3.215 -8.984,10.226 -26.316,9.875 -17.356,-0.422 -27.16,0.828 -39.523,10.398 -3.235,2.473 -5.872,5.325 -8.125,7.715 -0.145,0.07 -0.223,0.129 -0.403,0.266 -11.851,8.886 -9.519,-20.703 -7.078,-25.559 8.555,-16.961 14.387,-10.027 63.856,-35.898 23.507,-12.324 29.035,-28.848 31.503,-35.789 3.977,-11.231 8.071,-14.434 -27.91,-9.504 -11.48,1.574 -32.215,8.769 -42.027,15.293 -9.492,6.406 -28.52,1.211 -26.809,-12.735 8.868,-21.308 31.668,-34.687 53.457,-37.363 19.024,-2.363 27.657,-6.445 31.106,-10.625 10.476,-11.66 -8.852,-28.738 -8.852,-28.738 -9.656,-10.961 0.782,-23.903 7.903,-27.719 11.589,-5.773 34.074,-18.98 41.601,-38.031 38.985,-98.621 1.262,-70.379 -17.265,-59.051 -18.528,11.332 -53.836,40.332 -86.043,37.781 -32.2,-2.5 -42.93,-4.172 -61.997,10.68 -19.121,14.879 -17.214,-9.211 -17.214,-9.211 0,0 0,-29.25 0,-118.949 1.148,-26.68 6.14,-52.071 27.714,-73.641 17.688,-17.691 31.125,-14.359 56.094,-44.2108 11.504,-13.75 49.024,-28.6094 74.071,-28.8906 l 47.992,-0.0195 170.801,164.3589 v 452.45 l -145.333,145.254 -94.621,0.035 c 7.996,-12.957 12.598,-29.856 15.996,-54.598 0.079,-14.891 -19.968,-7.637 -26.433,-3.773 -4.543,3.047 -10.481,5.902 -18.281,7.683 -14.543,3.453 -49.328,18.403 -58.821,21.77 -9.699,3.437 -16.75,-3.574 -17.871,-6.227 l 0.031,-0.004 c -2.414,-4.511 2.625,-13.636 2.625,-13.636 13.711,-30.364 38.797,-28.778 66.473,-48.145 37.961,-26.621 17.617,-32.18 9.817,-28.164 -7.747,4.004 -20.477,1.492 -20.477,1.492 -30.664,-8.262 -39.855,4.219 -57.797,8.926 -17.918,4.73 -3.23,-17.117 3.234,-24.422" /><path
         id="path18"
         style="fill:#100f0d;fill-opacity:1;fill-rule:nonzero;stroke:none"
         d="m 359.773,113.711 c 11.836,18.328 32.715,33.891 45.981,47.16 14.004,13.961 16.504,45.77 16.937,80.34 0,53.32 0,72.039 0,72.039 l 0.106,-0.738 c 0,7.199 0,12.929 0,17.218 l 0.031,0.02 v 11.48 c 0.024,0.461 0.024,1.481 0,2.719 V 375 c 0,7.18 -8.492,7.738 -27.082,-11.898 -18.582,-19.641 -49.883,-18.082 -67.969,-19.641 -18.011,-1.621 -70.05,-28.18 -84.925,-47.27 -9.231,-11.871 -22.278,-2.109 -16.969,21.219 l -0.129,0.012 c 2.516,10.566 7.141,24.687 14.539,43.367 10.32,26.09 48.777,41.293 48.777,41.293 0,0 3.942,1.746 7.422,5.106 h -32.57 c -0.012,-0.008 -0.02,-0.02 -0.039,-0.02 H 47.6016 L 47.5234,212.199 218.289,47.8008 273.215,47.7813 c 51.621,2.5 70.906,41.7187 86.558,65.9297" /><path
         id="path20"
         style="fill:#100f0d;fill-opacity:1;fill-rule:nonzero;stroke:none"
         d="M 218.289,1343.57 47.5234,1179.46 V 705.355 L 192.832,559.875 H 329.32 c 23.395,10.02 28.313,9.188 34.782,22.02 0.949,1.933 1.91,7.824 1.968,13.613 0.297,1.64 3.246,18.937 -5.332,14.707 -14.586,-7.227 -43.996,11.738 -66.082,0.539 -22.051,-11.211 -5.929,14.707 -2.808,19.207 0,0 11.808,15.273 29.593,25.371 0.668,0.344 1.227,0.723 1.739,1.086 1.738,0.918 3.519,1.785 5.355,2.617 13.508,6.199 52.11,31.422 59.047,39.258 4.117,4.594 11.449,15.023 11.789,20.852 1.203,5.007 2.16,13 -2.754,16.14 -7.355,4.715 -13.226,-4.625 -24.746,-9.64 -11.523,-5 -20.172,-7.079 -30.453,-7.422 -9.832,-0.321 -19.27,3.351 -25.164,2.457 -5.945,-0.903 -9.399,3.496 1.461,14.172 4.89,4.839 7.004,6.992 9.301,8.668 25.793,16.203 48.886,16.414 61.793,45.074 0,0 10.097,25.82 -9.317,14.824 -10.679,-6.074 -16.457,-14.824 -46.898,-14.824 -30.426,0 -42.289,-14.043 -47.438,-20.231 0,0 -20.636,-28.363 -15.5,11.352 5.188,39.711 12.996,59.89 32.063,75.301 16.39,13.293 57.199,31.109 71.914,50.722 7.574,7.383 26.519,28.598 15.469,46.653 -4.598,7.543 -15.926,-12.082 -27.653,-14.59 h -0.008 c -13.281,-3.496 -30.273,-7.766 -43.226,-5.207 -16.047,3.183 -26.289,-2.817 -32.274,-5.512 -5.957,-2.656 -17.32,5.797 -3.48,21.293 18.562,20.801 63.414,47.934 93.625,64.135 4.133,1.67 14.258,6.04 23.531,11.8 0.184,0.1 0.371,0.19 0.535,0.27 2.297,1 5.672,3.03 7.621,5.53 6.602,5.38 11.09,11.49 9.547,17.62 -1.398,5.67 -4.152,7.52 -13.035,8.44 -7.097,0.7 -18.722,-7.36 -28.582,-6.59 -15.133,1.19 -37.234,-2.22 -29.918,8.3 6.844,9.82 18.028,16.07 21.172,17.76 6.242,2.81 14.488,6.36 26.766,11.8 19.238,8.46 16.543,29.95 9.07,30.72 -11.609,1.2 -42.859,-8.6 -20.859,16.06 0,0 10.488,10.31 20.957,17.02 8.336,4.72 15.175,6.56 23.386,9.46 5.2,1.82 18.551,13.54 -13.269,14.75 0,0 -17.856,-0.47 -14.391,7.55 2.75,5.35 18.375,15 18.375,15 0,0 12.625,8.43 17.699,13.52 4.934,4.58 8.407,8.33 8.168,12.48 -0.242,4.77 -12.742,10.63 -18.035,17.25 -3.824,4.77 -0.601,6.44 1.539,7.04 1.133,0.21 2.461,0.35 4.141,0.34 12.891,-0.02 16.621,12.62 24.109,45.62 2.278,9.95 2.43,12.05 5.731,12.07 v 0 c 0.015,0 0.015,0 0.015,0 v 0 c 0.25,0 0.465,-0.06 0.657,-0.06 0,0 3.222,-16.76 7.886,-35.42 3.875,-10.27 8.289,-14.65 15.868,-14.62 1.632,0 2.96,-0.14 4.097,-0.4 2.11,-0.56 5.41,-2.23 1.571,-7.02 -2.911,-3.63 -11.633,-9.59 -12.254,-13.22 -2.563,-10.28 7.363,-13.96 17.546,-14.68 14.375,-0.99 8.379,-9.75 -7.113,-21.06 -15.039,-10.96 23.336,-34.26 23.336,-34.26 21.863,-16.6 6.27,-20.92 1.817,-23.24 -4.446,-2.31 -16.704,-9.69 -4.368,-14.4 12.336,-4.67 29.368,-21.46 29.368,-21.46 21.972,-24.64 -9.29,-14.84 -20.879,-16.04 -7.481,-0.78 -10.149,-22.26 9.05,-30.74 29.321,-12.95 35.774,-15.18 46.172,-22.73 19.297,-14.08 9.055,-25.99 -15.086,-21.79 0,0 -15.468,3.8 -26.339,1.73 -6.739,-1.31 -11.415,-2.81 -14.586,-4.41 -1.664,-2.47 -5.539,-12.26 28.101,-22.414 16.106,-4.875 35.981,-16.77 53.652,-30.367 l 275.708,0.289 V 1179.19 L 703.762,1343.57 H 218.289" /><path
         id="path22"
         style="fill:#100f0d;fill-opacity:1;fill-rule:nonzero;stroke:none"
         d="m 898.32,936.227 -272.961,0.023 c 5.727,-5.926 10.5,-11.641 13.75,-16.691 12.246,-14.715 1.614,-22.704 -4.226,-20.246 0,0 -4.531,2.144 -7.442,3.277 -2.722,0.863 -14.445,2.168 -16.093,2.14 -14.493,0.458 -53.582,2.997 -77.356,16.477 -9.336,5.273 -10.269,-7.461 -6.179,-17.539 2.207,-5.434 10.546,-17.348 21.707,-28.695 2.816,-3.125 6.234,-6.239 10.058,-9.262 4.485,-3.813 9.238,-7.242 14.067,-10.016 0.054,-0.023 0.085,-0.031 0.117,-0.062 12.578,-8.113 26.406,-15.637 36.66,-22.285 L 739.063,833.359 898.32,674.191 V 201.789 L 713.313,23.7617 H 208.734 L 23.7617,202.09 23.8672,430.93 H 271.539 c 0,-0.012 0.02,-0.02 0.024,-0.039 h 24.351 c -2.809,3.25 -6.766,6.777 -12.305,10.527 0,0 -21.578,18.301 28.43,24.473 21.805,2.695 44.57,16.043 53.445,37.363 1.704,13.953 -17.308,19.16 -26.816,12.742 -9.766,-6.523 -30.531,-13.73 -42.012,-15.301 -35.98,-4.933 -31.906,-1.73 -27.926,9.512 1.852,5.184 5.403,15.75 16.934,25.887 L 182.984,536.133 23.7617,695.531 V 1189.58 L 208.766,1367.32 H 713.313 L 898.32,1189.29 Z M 922.063,1199.4 722.898,1391.08 H 199.18 L 0.0117188,1199.7 V 685.715 L 173.137,512.395 h 79.398 c -1.933,-5.227 -4.461,-13.301 1.024,-21.192 6.015,-8.683 16.386,-8.683 20.281,-8.683 4.723,0 11.176,0.558 21.164,1.855 0.016,-0.008 0.047,-0.039 0.047,-0.039 0,0 4.144,-3.543 -8.508,-7.617 v 0 c -10.426,-3.641 -19.488,-9.61 -22.555,-19.864 -0.211,-0.73 -0.293,-1.445 -0.425,-2.167 H 0.0976563 L 0,191.969 199.121,0 H 722.898 L 922.063,191.68 V 684.035 L 748.895,857.125 H 602.043 c -0.078,0.039 -0.148,0.074 -0.195,0.117 -6.477,3.813 -13.149,7.735 -19.243,11.703 l -2.183,1.403 -0.434,0.136 c -3.211,1.993 -6.695,4.536 -10.508,7.711 -3.281,2.606 -6.003,5.106 -8.027,7.403 l -0.555,0.566 c -3.894,3.973 -7.207,7.781 -9.875,11.145 22.954,-6.551 47.856,-8.137 59.817,-8.536 l 1.496,-0.003 c 0.777,0 1.551,-0.02 2.254,-0.04 l 1.062,-0.089 c 2.864,-0.227 5.078,-0.715 6.536,-1.141 1.535,-0.613 2.917,-1.273 4.128,-1.836 l 6.235,-2.277 c 1.472,-0.324 3.008,-0.485 4.578,-0.485 9.031,0 17.391,5.375 21.262,13.664 1.336,2.864 3.211,8.567 1.746,16.028 l 261.926,-0.149 V 1199.4" /></g></g></svg>