<?xml version="1.0" encoding="UTF-8" standalone="no"?>
<svg
   xmlns:dc="http://purl.org/dc/elements/1.1/"
   xmlns:cc="http://creativecommons.org/ns#"
   xmlns:rdf="http://www.w3.org/1999/02/22-rdf-syntax-ns#"
   xmlns:svg="http://www.w3.org/2000/svg"
   xmlns="http://www.w3.org/2000/svg"
   viewBox="0 0 125.93333 188.50667"
   height="188.50667"
   width="125.93333"
   xml:space="preserve"
   id="svg2"
   version="1.1"><metadata
     id="metadata8"><rdf:RDF><cc:Work
         rdf:about=""><dc:format>image/svg+xml</dc:format><dc:type
           rdf:resource="http://purl.org/dc/dcmitype/StillImage" /></cc:Work></rdf:RDF></metadata><defs
     id="defs6" /><g
     transform="matrix(1.3333333,0,0,-1.3333333,0,188.50667)"
     id="g10"><g
       transform="scale(0.1)"
       id="g12"><path
         id="path14"
         style="fill:#ffffff;fill-opacity:1;fill-rule:nonzero;stroke:none"
         d="m 594.066,879.555 c 5.344,-3.399 10.969,-6.77 16.524,-10.043 0.07,-0.024 0.129,-0.078 0.207,-0.102 H 757.719 L 930.973,696.246 V 203.648 L 731.715,11.8594 H 207.688 L 8.46094,203.93 8.5625,466.773 H 272.145 c 0.156,0.743 0.226,1.446 0.433,2.168 0.922,3.067 2.504,5.653 4.371,7.997 H 0.101563 L 0,198.398 205.82,0 h 532.856 l 205.84,198.102 V 699.918 L 764.848,879.555 H 594.066" /><path
         id="path16"
         style="fill:#ffffff;fill-opacity:1;fill-rule:nonzero;stroke:none"
         d="M 738.695,1413.78 H 205.844 L 0.0234375,1215.99 V 692.484 L 179.664,512.633 h 79.238 c -0.285,4.558 1.043,8.719 2.227,11.867 H 181.684 L 8.46094,697.895 V 1212.15 L 207.738,1403.61 H 731.715 L 930.973,1211.85 V 924.762 l -262.071,0.133 c 0.946,-4.809 0.489,-8.801 -0.332,-11.868 h 275.946 v 302.653 l -205.821,198.1" /><path
         id="path18"
         style="fill:#ffffff;fill-opacity:1;fill-rule:nonzero;stroke:none"
         d="M 418.109,548.258 H 191.527 L 32.2422,707.746 V 1202.01 L 217.324,1379.85 H 722.105 L 907.211,1201.72 V 948.543 H 503.203 V 845.633 H 747.887 L 907.211,686.391 V 213.762 L 722.105,35.6484 H 217.301 L 32.2422,214.059 32.3438,442.887 H 417.559 l 0.55,105.371" /><path
         id="path20"
         style="fill:#ffffff;fill-opacity:1;fill-rule:nonzero;stroke:none"
         d="M 413.766,524.5 H 181.684 L 8.46094,697.895 V 1212.15 L 207.738,1403.61 H 731.715 L 930.973,1211.85 V 924.762 H 503.203 V 869.41 H 757.719 L 930.973,696.246 V 203.648 L 731.715,11.8594 H 207.688 L 8.46094,203.93 8.5625,466.773 H 417.688 l -3.922,57.727" /><path
         id="path22"
         style="fill:#a80c30;fill-opacity:1;fill-rule:nonzero;stroke:none"
         d="m 541.813,682.73 c 6.953,-7.812 45.554,-33.054 59.05,-39.265 29.356,-13.402 44.59,-35.129 53.672,-62.738 8.613,-26.082 -0.742,-20.36 -7.742,-17.137 -6.984,3.223 -8.977,10.223 -26.32,9.875 -17.371,-0.414 -27.176,0.836 -39.551,10.41 -3.211,2.477 -5.867,5.34 -8.133,7.742 -0.148,0.051 -0.226,0.125 -0.402,0.254 -11.864,8.879 -9.512,-20.715 -7.078,-25.566 8.562,-16.985 14.394,-10.047 63.886,-35.926 23.524,-12.316 29.051,-28.871 31.532,-35.793 3.957,-11.25 8.066,-14.445 -27.918,-9.512 -11.516,1.563 -32.246,8.77 -42.063,15.293 -9.519,6.414 -28.535,1.223 -26.816,-12.742 8.859,-21.32 31.672,-34.691 53.476,-37.375 19.035,-2.344 27.668,-6.445 31.125,-10.637 10.477,-11.679 -8.859,-28.742 -8.859,-28.742 -9.656,-10.961 0.773,-23.922 7.91,-27.73 11.602,-5.782 34.074,-19 41.621,-38.051 38.996,-98.668 1.25,-70.442 -17.285,-59.09 -18.535,11.359 -53.867,40.34 -86.082,37.789 -32.219,-2.508 -42.961,-4.168 -62.031,10.711 -19.121,14.891 -17.207,-9.219 -17.207,-9.219 0,0 0,-29.281 0,-119.019 1.152,-26.692 6.14,-52.082 27.715,-73.672 17.695,-17.692 31.14,-14.36 56.121,-44.2306 11.504,-13.7696 49.035,-28.6289 74.121,-28.9102 l 47.988,-0.0273 170.898,164.4491 v 452.656 l -145.41,145.356 -94.648,0.023 c 8.008,-12.965 12.617,-29.894 15.976,-54.64 0.11,-14.879 -19.949,-7.641 -26.425,-3.786 -4.559,3.075 -10.477,5.934 -18.289,7.696 -14.543,3.453 -49.368,18.41 -58.848,21.789 -9.699,3.445 -16.75,-3.582 -17.871,-6.215 l 0.019,-0.027 c -2.422,-4.5 2.637,-13.625 2.637,-13.625 13.699,-30.379 38.809,-28.789 66.504,-48.172 37.957,-26.641 17.617,-32.215 9.824,-28.203 -7.765,4.015 -20.488,1.515 -20.488,1.515 -30.684,-8.261 -39.895,4.215 -57.832,8.914 -17.93,4.735 -3.223,-17.129 3.223,-24.422" /><path
         id="path24"
         style="fill:#a80c30;fill-opacity:1;fill-rule:nonzero;stroke:none"
         d="m 368.402,125.641 c 11.84,18.339 32.731,33.91 45.996,47.168 14.016,13.98 16.524,45.8 16.954,80.402 0,53.32 0,72.07 0,72.07 l 0.101,-0.742 c 0,7.199 0,12.93 0,17.231 l 0.027,0.019 v 11.492 c 0.028,0.449 0.028,1.469 0,2.699 v 31.071 c 0,7.179 -8.488,7.75 -27.07,-11.922 -18.617,-19.641 -49.914,-18.07 -68.019,-19.641 -18.024,-1.609 -70.078,-28.168 -84.961,-47.258 -9.227,-11.902 -22.293,-2.128 -16.973,21.211 h -0.125 c 2.504,10.59 7.133,24.7 14.547,43.418 10.332,26.071 48.781,41.286 48.781,41.286 0,0 3.961,1.738 7.442,5.117 H 272.5 c 0,-0.028 -0.023,-0.028 -0.023,-0.028 H 56.0977 L 56.0195,224.191 226.859,59.6992 281.813,59.6719 c 51.644,2.5078 70.945,41.7261 86.589,65.9691" /><path
         id="path26"
         style="fill:#a80c30;fill-opacity:1;fill-rule:nonzero;stroke:none"
         d="M 226.859,1356.09 56.0195,1191.9 V 717.563 L 201.395,572.008 H 337.93 c 23.422,10.027 28.332,9.199 34.797,22.031 0.972,1.953 1.918,7.82 1.968,13.633 0.309,1.641 3.274,18.957 -5.316,14.695 -14.606,-7.207 -44.031,11.738 -66.121,0.551 -22.063,-11.203 -5.93,14.723 -2.813,19.215 0,0 11.817,15.285 29.61,25.375 0.668,0.347 1.222,0.742 1.738,1.09 1.742,0.918 3.527,1.797 5.371,2.629 13.496,6.191 52.129,31.425 59.063,39.281 4.117,4.594 11.449,15.031 11.808,20.859 1.203,5.012 2.153,12.992 -2.762,16.133 -7.363,4.73 -13.242,-4.621 -24.769,-9.637 -11.535,-5.011 -20.176,-7.086 -30.453,-7.418 -9.848,-0.328 -19.281,3.352 -25.188,2.461 -5.957,-0.929 -9.41,3.473 1.461,14.164 4.906,4.856 7.004,7.008 9.305,8.664 25.801,16.211 48.914,16.446 61.82,45.102 0,0 10.102,25.848 -9.304,14.852 -10.688,-6.083 -16.465,-14.852 -46.946,-14.852 -30.422,0 -42.289,-14.039 -47.449,-20.227 0,0 -20.637,-28.379 -15.496,11.356 5.187,39.73 12.992,59.902 32.062,75.32 16.414,13.297 57.247,31.145 71.95,50.758 7.593,7.387 26.539,28.602 15.488,46.68 -4.594,7.543 -15.945,-12.09 -27.66,-14.594 h -0.028 c -13.265,-3.508 -30.269,-7.774 -43.234,-5.215 -16.055,3.191 -26.309,-2.812 -32.293,-5.523 -5.953,-2.661 -17.332,5.8 -3.476,21.324 18.566,20.785 63.433,47.935 93.66,64.145 4.14,1.66 14.265,6.04 23.543,11.82 0.179,0.1 0.386,0.18 0.539,0.25 2.3,1 5.672,3.04 7.617,5.52 6.621,5.4 11.098,11.51 9.562,17.64 -1.406,5.68 -4.144,7.52 -13.035,8.44 -7.109,0.71 -18.746,-7.36 -28.613,-6.59 -15.137,1.2 -37.25,-2.2 -29.91,8.31 6.824,9.81 18.019,16.08 21.164,17.76 6.242,2.81 14.5,6.37 26.797,11.81 19.222,8.47 16.539,29.98 9.078,30.74 -11.637,1.2 -42.906,-8.62 -20.891,16.06 0,0 10.512,10.33 20.969,17.03 8.336,4.73 15.187,6.57 23.395,9.48 5.214,1.82 18.558,13.53 -13.274,14.73 0,0 -17.871,-0.44 -14.394,7.57 2.765,5.35 18.378,15.01 18.378,15.01 0,0 12.633,8.44 17.727,13.52 4.93,4.59 8.383,8.34 8.152,12.5 -0.226,4.77 -12.734,10.62 -18.05,17.25 -3.809,4.77 -0.59,6.44 1.562,7.05 1.121,0.2 2.449,0.36 4.141,0.35 12.886,-0.03 16.621,12.61 24.105,45.63 2.281,9.94 2.434,12.04 5.731,12.07 v 0 c 0.023,0 0.023,0 0.023,0 v 0 c 0.258,0 0.465,-0.06 0.668,-0.06 0,0 3.219,-16.77 7.871,-35.43 3.887,-10.28 8.313,-14.66 15.883,-14.64 1.637,0 2.965,-0.13 4.117,-0.39 2.09,-0.56 5.391,-2.23 1.559,-7.02 -2.914,-3.63 -11.637,-9.59 -12.246,-13.23 -2.59,-10.29 7.355,-13.96 17.539,-14.68 14.394,-0.98 8.386,-9.75 -7.11,-21.08 -15.035,-10.97 23.34,-34.29 23.34,-34.29 21.883,-16.59 6.27,-20.92 1.817,-23.24 -4.446,-2.3 -16.719,-9.69 -4.368,-14.41 12.356,-4.66 29.368,-21.46 29.368,-21.46 22,-24.66 -9.27,-14.86 -20.879,-16.06 -7.461,-0.77 -10.149,-22.27 9.07,-30.77 29.297,-12.95 35.773,-15.16 46.172,-22.72 19.308,-14.08 9.062,-26.01 -15.078,-21.81 0,0 -15.496,3.82 -26.356,1.74 -6.73,-1.3 -11.437,-2.81 -14.609,-4.4 -1.652,-2.48 -5.52,-12.27 28.125,-22.45 16.113,-4.855 36.004,-16.769 53.699,-30.375 l 275.82,0.309 V 1191.62 L 712.543,1356.09 H 226.859" /><path
         id="path28"
         style="fill:#a80c30;fill-opacity:1;fill-rule:nonzero;stroke:none"
         d="m 907.211,948.543 -273.086,0.027 c 5.734,-5.937 10.52,-11.636 13.762,-16.699 12.246,-14.726 1.609,-22.703 -4.239,-20.254 0,0 -4.523,2.153 -7.441,3.278 -2.734,0.871 -14.445,2.175 -16.113,2.148 -14.492,0.457 -53.614,2.988 -77.364,16.465 -9.355,5.293 -10.304,-7.465 -6.191,-17.539 2.207,-5.422 10.535,-17.36 21.707,-28.711 2.813,-3.121 6.231,-6.242 10.078,-9.254 4.465,-3.813 9.231,-7.266 14.063,-10.024 0.051,-0.027 0.07,-0.027 0.097,-0.078 12.598,-8.105 26.438,-15.625 36.692,-22.297 l 128.711,0.028 159.324,-159.242 V 213.762 L 722.105,35.6484 H 217.301 L 32.2422,214.059 32.3438,443.012 H 280.121 c 0,-0.028 0.024,-0.028 0.051,-0.047 h 24.34 c -2.813,3.269 -6.778,6.777 -12.301,10.539 0,0 -21.602,18.297 28.434,24.488 21.812,2.688 44.593,16.059 53.488,37.375 1.687,13.965 -17.332,19.188 -26.844,12.735 -9.766,-6.524 -30.551,-13.719 -42.035,-15.293 -35.996,-4.93 -31.91,-1.727 -27.918,9.523 1.84,5.184 5.394,15.738 16.926,25.895 L 191.527,548.258 32.2422,707.746 v 494.264 l 185.0818,177.84 h 504.781 l 185.106,-178.13 z m 23.762,263.307 -199.258,191.76 H 207.738 L 8.46094,1212.15 V 697.895 L 181.684,524.5 h 79.445 c -1.949,-5.219 -4.481,-13.293 1.019,-21.195 6.012,-8.692 16.387,-8.692 20.274,-8.692 4.73,0 11.195,0.559 21.195,1.856 l 0.028,-0.02 c 0,0 4.168,-3.543 -8.516,-7.613 v -0.031 c -10.402,-3.633 -19.484,-9.59 -22.551,-19.864 -0.207,-0.722 -0.277,-1.425 -0.433,-2.168 H 8.5625 L 8.46094,203.93 207.688,11.8594 H 731.715 L 930.973,203.648 V 696.246 L 757.719,869.41 H 610.797 c -0.078,0.024 -0.137,0.078 -0.207,0.102 -6.473,3.832 -13.145,7.746 -19.227,11.734 l -2.199,1.383 -0.437,0.148 c -3.223,2 -6.7,4.528 -10.52,7.703 -3.262,2.606 -5.996,5.114 -8.027,7.411 l -0.547,0.562 c -3.895,3.988 -7.215,7.797 -9.883,11.149 22.969,-6.543 47.871,-8.133 59.836,-8.543 h 1.504 c 0.801,0 1.562,-0.024 2.254,-0.024 l 1.074,-0.101 c 2.863,-0.231 5.09,-0.715 6.523,-1.125 1.536,-0.637 2.93,-1.278 4.141,-1.844 l 6.242,-2.293 c 1.473,-0.309 3.016,-0.465 4.571,-0.465 9.05,0 17.41,5.363 21.269,13.652 1.348,2.864 3.211,8.594 1.738,16.036 l 262.071,-0.133 v 287.088" /><path
         id="path30"
         style="fill:#006f5f;fill-opacity:1;fill-rule:nonzero;stroke:none"
         d="m 712.543,52.6211 -47.93,0.0273 c -24.082,0.2813 -61.394,16.5508 -72.625,29.9922 -14.933,17.8394 -26.066,24.1484 -35.89,29.7304 -6.825,3.867 -13.27,7.52 -20.352,14.629 -22.07,22.09 -26.101,47.809 -27.156,72.25 l -0.012,125.98 c -0.16,2.141 -0.058,8.25 2.324,10.84 0.696,0.762 1.543,1.11 2.629,1.11 1.563,0 4.395,-0.758 9.11,-4.442 12.238,-9.539 21.339,-12.75 36.066,-12.75 6.367,0 13.672,0.551 22.891,1.293 l 4.433,0.34 c 25.75,2.117 53.574,-16.621 73.516,-30.039 4.258,-2.863 8.066,-5.441 11.394,-7.473 l 3.379,-2.097 c 7.637,-4.801 17.16,-10.762 24.16,-10.762 3.223,0 5.774,1.281 7.442,3.711 3.547,5.211 5.859,18.199 -14.852,70.641 -7.675,19.378 -29.961,32.808 -42.531,39.039 -4.305,2.339 -9.473,8.007 -10.555,13.988 -0.714,3.91 0.371,7.519 3.036,10.57 0.488,0.41 11.984,10.707 12.589,21.344 0.235,3.84 -0.976,7.273 -3.515,10.117 -4.531,5.469 -15.129,9.18 -32.403,11.328 -19.269,2.371 -42.707,14.395 -51.808,35.918 -0.32,3.098 0.527,5.782 2.48,7.977 2.735,3.097 7.578,5.051 12.617,5.051 3.333,0 6.426,-0.848 8.711,-2.403 10.43,-6.933 31.602,-14.093 42.883,-15.605 11.602,-1.582 18.496,-2.278 23.106,-2.278 4.851,0 7.468,0.801 8.769,2.688 1.641,2.352 0.508,5.391 -0.929,9.227 -0.293,0.761 -0.594,1.582 -1.043,2.871 -2.571,7.179 -8.567,24.027 -32.336,36.476 -20.137,10.535 -33.231,15.731 -41.914,19.16 -12.899,5.106 -16.368,6.453 -21.141,15.899 -1.563,3.144 -3.02,18.457 -0.012,23.347 0.656,1.036 1.192,1.036 1.438,1.036 0.398,0 1.269,-0.176 2.851,-1.344 l 0.242,-0.16 c 2.2,-2.34 4.915,-5.235 8.157,-7.743 13.23,-10.207 23.718,-11.191 40.789,-10.82 l 1.222,0.028 c 10.79,0 14.786,-3.094 18.633,-6.055 1.68,-1.309 3.407,-2.645 5.606,-3.629 l 1.179,-0.57 c 2.61,-1.219 5.313,-2.5 7.668,-2.5 2.118,0 3.309,1.027 3.934,1.886 1.523,2.102 2.434,6.192 -2.352,20.692 -10.285,31.242 -27.668,51.562 -54.718,63.918 -13.243,6.082 -51.563,31.062 -58.407,38.789 -6.191,6.992 -12.531,17.949 -11.132,21.039 0.086,0.176 0.339,0.762 2.148,0.762 1.004,0 2.285,-0.18 3.797,-0.586 4.824,-1.274 9.133,-3.168 13.281,-5.012 7.481,-3.324 15.227,-6.742 26.387,-6.742 5.832,0 12.109,0.91 19.043,2.785 0.039,0.027 3.82,0.73 8.39,0.73 4.473,0 8.211,-0.683 10.809,-2.039 1.738,-0.898 3.926,-1.379 6.172,-1.379 4.453,0 7.844,1.965 8.859,5.118 2.02,6.414 -5.656,15.769 -22.824,27.808 -9.785,6.856 -19.414,11.172 -27.91,15.016 -16.367,7.383 -29.297,13.211 -38.008,32.492 -1.746,3.172 -4.012,9.152 -2.617,11.762 l 0.41,0.765 c 1.203,1.739 5.012,5.348 10.488,5.348 1.504,0 3.039,-0.254 4.571,-0.82 2.824,-0.996 7.929,-3.043 14.062,-5.5 14.621,-5.856 34.668,-13.883 45.02,-16.332 6.601,-1.508 12.531,-3.989 17.695,-7.469 3.703,-2.199 11.582,-5.473 18.215,-5.473 3.633,0 6.473,0.996 8.418,2.942 1.863,1.894 2.801,4.578 2.762,8.257 -3.387,24.829 -9.961,47.149 -16.356,55.563 -4.035,5.285 -14.504,18.254 -24.805,24.234 -4.941,2.867 -22.199,12.961 -36.281,21.989 l -0.515,0.363 c -4.543,2.605 -9.18,5.902 -13.821,9.844 -3.926,3.113 -7.226,6.156 -9.89,9.125 -10.957,11.148 -19.141,22.777 -21.289,28.07 -2.403,5.883 -2.903,12.555 -1.145,15.164 0.93,1.324 2.395,1.148 4.551,-0.078 23.976,-13.625 62.726,-16.235 78.379,-16.746 1.621,0 12.98,-1.254 15.363,-1.992 2.852,-1.129 7.285,-3.223 7.383,-3.278 4.109,-1.687 9.57,0.617 11.609,5.012 1.367,2.914 2.52,9.18 -4.961,18.129 -3.211,4.984 -7.91,10.715 -14.011,17.027 -0.129,0.133 -13.586,13.785 -26.731,23.676 -11.074,8.312 -38.379,25.875 -54.305,30.682 -21.398,6.47 -26.406,12.5 -27.472,15.49 -0.535,1.54 -0.254,2.74 0.168,3.55 3.172,1.51 7.734,2.84 13.593,4 2.012,0.38 4.375,0.59 7.02,0.59 9.035,0 18.398,-2.28 18.633,-2.33 14.172,-2.48 24.824,0.48 27.051,7.31 1.027,3.12 1.015,9.61 -10.477,18 -8.781,6.4 -14.922,9.08 -33.195,17.08 -3.856,1.69 -8.25,3.61 -13.348,5.88 -12.316,5.42 -14.172,15.96 -13.332,21.33 0.5,3.16 2.004,5.49 3.672,5.67 2.617,0.31 6.289,-0.05 10.246,-0.41 3.125,-0.25 6.355,-0.54 9.238,-0.54 3.985,0 8.77,0.44 10.34,3.97 1.582,3.55 -0.789,8.56 -7.762,16.39 -0.703,0.69 -17.48,17.13 -30.039,21.89 -2.539,0.97 -4.043,2.12 -4.093,3.14 -0.106,1.84 3.449,5 8.652,7.7 0.402,0.2 0.898,0.43 1.445,0.68 3.203,1.47 8.574,3.91 9.121,8.99 0.528,4.78 -3.418,10.3 -12.265,16.98 -7.078,4.31 -25.528,17.39 -25.899,26.15 -0.078,1.93 0.762,3.49 2.684,4.88 15.961,11.66 16.722,16.8 15.902,19.65 -1.262,4.4 -7.695,4.83 -9.793,4.97 -7.375,0.53 -12.664,2.48 -14.883,5.53 -1.289,1.78 -1.589,3.98 -0.89,6.86 0.281,1.62 4.179,5.09 6.761,7.38 2.024,1.8 3.938,3.49 5.118,4.96 1.929,2.41 2.593,4.61 1.965,6.52 -0.583,1.74 -2.168,3 -4.629,3.62 -1.278,0.31 -2.762,0.47 -4.614,0.47 -6.507,0 -10.293,3.61 -13.91,13.14 -4.613,18.39 -7.851,35.16 -7.875,35.33 l -0.355,1.6 -2.25,0.05 c -4.563,-0.04 -5.254,-3.07 -7.075,-11.14 l -0.554,-2.46 c -7.418,-32.68 -11.012,-44.1 -22.41,-44.1 -1.489,0 -2.856,-0.14 -4.489,-0.42 -3.047,-0.88 -4.144,-2.5 -4.527,-3.7 -0.602,-1.89 0.063,-4.08 1.992,-6.47 2.442,-3.07 6.137,-5.83 9.719,-8.5 3.477,-2.59 7.809,-5.85 7.906,-7.63 0.172,-3.13 -2.527,-6.27 -7.609,-11.01 -4.863,-4.88 -17.278,-13.19 -17.34,-13.23 -1.648,-1.02 -16.195,-10.13 -19.148,-15.9 -1.125,-2.61 -0.493,-4.5 0.257,-5.63 2.774,-4.23 11.719,-4.69 15.446,-4.69 l 0.414,0.01 c 17.109,-0.65 18.515,-4.23 18.617,-4.95 0.309,-1.96 -3.481,-5.12 -5.922,-5.97 -1.652,-0.6 -3.234,-1.14 -4.789,-1.65 -6.23,-2.12 -12.098,-4.11 -19.016,-8.04 -10.531,-6.72 -20.847,-16.84 -21.371,-17.37 -6.906,-7.74 -9.273,-12.76 -7.687,-16.3 1.574,-3.52 6.344,-3.98 10.316,-3.98 2.895,0 6.11,0.28 9.246,0.57 3.957,0.35 7.637,0.69 10.254,0.39 1.676,-0.16 3.18,-2.52 3.68,-5.71 0.84,-5.35 -1.02,-15.86 -13.344,-21.28 -5.828,-2.58 -10.766,-4.73 -15,-6.59 -4.68,-2.05 -8.512,-3.73 -11.914,-5.27 -5.391,-2.89 -15.43,-9.16 -21.871,-18.38 -1.828,-2.64 -2.266,-4.91 -1.289,-6.8 2.183,-4.2 10.418,-4.22 20.824,-4.28 4.024,0 8.18,-0.02 11.863,-0.3 5.594,-0.41 11.84,1.79 17.219,3.76 4.371,1.61 8.543,3.14 11.317,2.83 8.523,-0.89 10.234,-2.42 11.367,-6.95 1.144,-4.63 -1.848,-9.9 -9.211,-15.95 -1.61,-2.08 -4.606,-3.97 -6.852,-4.94 l -0.789,-0.41 c -9.781,-6.08 -20.269,-10.46 -23.453,-11.73 -33.887,-18.18 -76.43,-44.697 -94.215,-64.619 -8.554,-9.582 -7.531,-16.179 -6.144,-19.25 2.031,-4.527 7.734,-6.98 11.922,-5.136 l 1.953,0.918 c 4.785,2.253 11.328,5.316 20.511,5.316 2.801,0 5.7,-0.274 8.621,-0.863 2.735,-0.543 5.786,-0.821 9.086,-0.821 12.008,0 25.875,3.657 34.961,6.035 5.805,1.25 11.203,6.036 15.973,10.254 3.18,2.836 6.785,6.036 8.582,6.036 0.195,0 0.555,0 1.027,-0.797 10.184,-16.621 -7.207,-36.461 -15.367,-44.465 -9.117,-12.141 -28.765,-23.75 -46.109,-33.973 -9.977,-5.906 -19.403,-11.484 -25.508,-16.422 -18.805,-15.211 -27.391,-35.254 -32.785,-76.625 -1.527,-11.734 -1.004,-18.609 1.644,-21.625 1.016,-1.152 2.329,-1.746 3.829,-1.746 5.558,0 12.281,8.852 13.496,10.539 4.851,5.824 16.218,19.512 45.945,19.512 25.262,0 34.273,6.102 42.238,11.473 1.84,1.25 3.656,2.484 5.653,3.609 6.953,3.938 7.898,2.508 8.375,1.789 1.617,-2.379 -0.11,-9.719 -1.805,-14.09 -8.621,-19.148 -21.559,-24.98 -37.922,-32.367 -7.41,-3.348 -15.066,-6.801 -23.262,-11.969 -2.289,-1.633 -4.281,-3.625 -8.64,-7.976 l -0.895,-0.864 c -6.23,-6.14 -8.683,-10.996 -7.266,-14.449 0.997,-2.457 3.887,-3.629 7.481,-3.07 2.684,0.41 6.273,-0.281 10.25,-0.969 4.043,-0.719 8.617,-1.535 13.34,-1.535 l 1.34,0.027 c 10.66,0.332 19.406,2.477 31.187,7.567 4.246,1.863 7.688,4.219 10.735,6.316 5.07,3.477 8.503,5.828 12.191,3.477 3.973,-2.535 2.902,-9.871 1.851,-14.371 -0.281,-4.836 -6.851,-14.7 -11.296,-19.661 -6.864,-7.742 -45.207,-32.753 -58.438,-38.789 -1.879,-0.867 -3.672,-1.757 -5.805,-2.91 -0.421,-0.281 -0.871,-0.593 -1.429,-0.898 -17.938,-10.145 -29.699,-25.242 -30.25,-25.945 -0.469,-0.696 -11.528,-16.622 -8.375,-22.708 0.472,-0.894 1.676,-2.398 4.437,-2.398 2.254,0 5.281,0.984 9.246,3.016 4.535,2.293 9.743,3.386 15.91,3.386 7.458,0 15.086,-1.582 22.477,-3.14 11.125,-2.328 21.363,-3.91 27.691,-0.813 1.622,0.813 1.817,0.614 2.188,0.157 1.547,-1.875 1.137,-8.563 0.316,-13.094 -0.05,-5.981 -1.074,-11.36 -1.746,-12.754 -4.761,-9.445 -8.222,-10.793 -21.125,-15.91 -3.527,-1.407 -7.695,-3.039 -12.726,-5.215 -1.383,-0.617 -33.996,-15.34 -44.149,-24.082 -10.07,-8.672 -15.297,-20.481 -17.527,-26.75 l -0.895,-2.418 c -1.441,-3.84 -2.593,-6.887 -0.941,-9.258 1.305,-1.898 3.926,-2.687 8.793,-2.687 4.613,0 11.519,0.695 23.113,2.277 11.317,1.531 32.508,8.687 42.864,15.625 2.277,1.531 5.371,2.371 8.695,2.371 5.051,0 9.883,-1.926 12.617,-5.02 1.969,-2.218 2.813,-4.902 2.492,-8 -9.101,-21.519 -32.535,-33.543 -51.789,-35.918 -20.914,-2.585 -32.164,-7.488 -34.414,-15.007 -2.059,-6.907 4.641,-12.688 5.106,-13.067 5.585,-3.777 9.339,-7.461 12,-10.254 2.925,-3.097 5.902,-8.125 5.484,-13.007 -0.254,-3.016 -1.875,-8.055 -11.649,-12.637 -9.761,-4.547 0,0 0.016,0 -1.609,-0.645 -39.398,-15.817 -49.922,-42.399 -7.039,-17.839 -11.969,-32.539 -14.625,-43.668 l -0.461,-2.421 h 0.086 c -1.719,-9.489 -0.57,-17.54 3.254,-22.321 4.535,-5.679 12.371,-4.98 17.676,1.86 14.715,18.882 66.781,45 83.605,46.523 2.688,0.227 5.653,0.398 8.836,0.547 18.594,1.031 44.051,2.41 60.418,19.691 13.938,14.731 20.157,15.879 21.742,15.879 0.688,0 1.961,0 1.961,-2.609 v -31.11 c 0.028,-1.148 0.039,-2.121 0,-2.66 l -0.128,-106.851 c -0.411,-32.949 -2.684,-65.348 -16.379,-79.008 -3.86,-3.879 -8.395,-7.949 -13.192,-12.262 -11.515,-10.347 -24.57,-22.09 -33.054,-35.25 -1.485,-2.289 -2.997,-4.687 -4.567,-7.219 C 347.582,89 327.5,55.1016 281.773,52.8711 l -54.914,0.0273 485.684,-0.2773" /><path
         id="path32"
         style="fill:#ffffff;fill-opacity:1;fill-rule:nonzero;stroke:none"
         d="m 319.664,58.0898 301.797,-0.1679 c -14.356,5.9883 -27.207,13.8164 -33.488,21.3398 -14.325,17.1094 -25.008,23.1993 -34.442,28.5393 -6.836,3.879 -13.918,7.898 -21.496,15.488 -23.347,23.371 -27.582,50.211 -28.668,75.731 l -0.027,126.21 c -0.063,0.61 -0.625,9.68 3.707,14.391 3.965,4.32 10.547,3.711 18.808,-2.73 16.473,-12.871 26.211,-12.692 55.333,-10.391 l 4.433,0.332 c 26.973,2.328 56.219,-17.031 76.824,-30.891 4.59,-3.089 8.118,-5.472 11.211,-7.351 l 3.43,-2.121 c 6.727,-4.231 15.898,-9.981 21.394,-9.981 1.895,0 2.657,0.774 3.118,1.422 2.48,3.672 3.816,17.121 -15.383,65.781 -7.07,17.789 -28.094,30.368 -40,36.278 -5.684,3.031 -11.992,10.043 -13.387,17.711 -0.988,5.5 0.488,10.672 4.258,14.949 4.043,3.668 10.918,11.516 11.297,18.215 0.156,2.433 -0.574,4.504 -2.195,6.32 -2.61,3.137 -9.629,7.207 -29.133,9.609 -20.723,2.579 -46.082,15.645 -55.996,39.09 l -0.379,1.516 c -0.481,4.519 0.82,8.664 3.75,11.98 6.258,7.063 20.332,8.829 28.191,3.508 9.68,-6.445 30.168,-13.34 40.656,-14.758 21.063,-2.91 26.934,-1.707 27.012,-1.648 -0.176,0.273 -1.035,2.578 -1.66,4.238 l -1.106,3.02 c -2.343,6.597 -7.878,22.058 -29.804,33.562 -19.883,10.379 -32.852,15.528 -41.406,18.926 -13.282,5.234 -18.223,7.219 -23.895,18.406 -2.18,4.375 -3.977,21.684 0.215,28.438 2.527,4.082 6.98,4.777 11.855,1.172 3.133,-3.125 5.586,-5.731 8.477,-7.977 10.723,-8.262 19.297,-9.785 32.324,-9.785 l 6.484,0.098 c 12.559,0 17.696,-3.965 21.836,-7.161 1.551,-1.199 2.95,-2.273 4.559,-3.015 l 1.281,-0.625 c 1.758,-0.813 4.18,-1.934 5.371,-1.961 -0.039,0.23 0.77,3.203 -3.351,15.691 -9.793,29.774 -26.278,49.102 -51.914,60.782 -12.715,5.859 -52.352,31.289 -60.157,40.085 -0.164,0.188 -15.847,18.11 -11.98,26.672 0.898,1.973 4.492,5.164 12.07,3.071 5.196,-1.356 9.688,-3.325 14.012,-5.266 7.355,-3.242 14.258,-6.289 24.297,-6.289 5.391,0 11.172,0.84 17.676,2.605 0.617,0.204 5.129,0.918 9.757,0.918 5.391,0 9.844,-0.89 13.231,-2.656 2.5,-1.277 7.219,-0.508 7.617,0.715 0.059,0.203 1.633,6.16 -20.84,21.91 -9.297,6.52 -18.613,10.715 -26.843,14.445 -16.907,7.622 -31.321,14.141 -40.832,35.188 -0.809,1.43 -5.575,10.633 -2.469,16.41 l 0.722,1.254 c 1.954,2.836 7.266,7.621 14.793,7.621 2.129,0 4.25,-0.387 6.329,-1.129 2.746,-0.969 7.648,-2.914 13.566,-5.297 15.215,-6.078 35.019,-14.007 44.961,-16.355 7.207,-1.664 13.75,-4.43 19.402,-8.234 3.996,-2.352 16.848,-6.446 20,-3.172 0.324,0.304 1.281,1.277 1.242,4.5 -3.164,22.988 -9.484,44.82 -15.293,52.437 -3.839,5.039 -13.789,17.387 -23.253,22.887 -6.434,3.73 -22.879,13.39 -36.473,22.09 -5.137,3.015 -10.059,6.515 -14.902,10.636 -4.004,3.164 -7.551,6.442 -10.391,9.618 -11.387,11.574 -19.856,23.699 -22.266,29.601 -2.648,6.496 -3.867,15.235 -0.617,20.07 2.422,3.5 6.555,4.321 11.465,1.563 22.969,-13.066 60.793,-15.598 75.969,-16.082 v 0 c 1.836,0 13.757,-1.305 16.746,-2.254 3.371,-1.305 8.066,-3.5 8.164,-3.574 h 0.019 c 1.914,0 3.75,0.894 4.504,2.531 0.692,1.461 1.621,5.574 -4.218,12.555 -3.418,5.261 -7.93,10.711 -13.77,16.769 -1.348,1.383 -13.859,13.91 -26.105,23.11 -10.489,7.879 -37.559,25.289 -52.665,29.871 -18.261,5.496 -28.359,11.626 -30.898,18.736 -0.93,2.66 -0.762,5.37 0.438,7.72 l 0.812,1.56 1.602,0.77 c 3.574,1.69 8.554,3.17 14.832,4.4 9.015,1.71 24.492,-1 27.793,-1.77 2.773,-0.49 5.617,-0.74 8.203,-0.74 7.773,0 12.004,2.3 12.746,4.55 0.73,2.3 -1.113,6.7 -8.594,12.18 -8.32,6.02 -14.348,8.68 -32.207,16.51 l -13.371,5.88 c -15.223,6.7 -17.469,20.07 -16.387,26.92 0.91,5.71 4.172,9.64 8.321,10.07 2.414,0.26 6.242,0.03 10.304,-0.33 3.965,-0.33 7.012,-0.58 9.707,-0.58 4.617,0 5.496,0.79 5.574,0.87 0,0.02 0.559,2.4 -6.902,10.73 -3.976,3.99 -18.156,16.78 -27.988,20.5 -4.797,1.83 -7.297,4.45 -7.461,7.79 -0.305,5.33 6.062,9.8 11.465,12.6 l 1.726,0.82 c 2.16,0.99 5.813,2.66 6.055,4.78 0.098,0.98 -0.32,4.73 -10.223,12.23 -2.414,1.44 -27.425,17.01 -27.972,30.1 -0.106,2.58 0.648,6.29 4.828,9.33 14.219,10.38 13.965,13.95 13.953,13.98 -0.039,0.02 -0.859,0.9 -5.106,1.18 -9.113,0.66 -15.613,3.32 -18.781,7.71 -2.211,3.05 -2.801,6.8 -1.738,11.14 0.445,2.63 2.844,5.16 8.375,10.07 1.953,1.74 3.531,3.09 4.496,4.31 0.82,1.02 1.043,1.66 1.055,1.83 -1.727,0.16 -2.84,0.27 -4.235,0.27 -11.043,0 -15.695,8.36 -18.804,16.52 -2.965,11.71 -5.407,22.92 -6.813,29.73 -0.246,-1.01 -0.5,-2.12 -0.726,-3.18 l -0.579,-2.48 c -6.816,-30.04 -10.933,-48.17 -27.507,-48.17 -1.18,0 -2.27,-0.11 -3.571,-0.34 -0.406,-0.08 -0.191,-0.71 0.629,-1.72 2.047,-2.58 5.453,-5.13 8.77,-7.6 6.054,-4.51 9.781,-7.49 10.004,-11.53 0.308,-5.72 -4.028,-10.22 -9.278,-15.14 -5.254,-5.27 -18.105,-13.82 -18.215,-13.88 -8.429,-5.23 -15.839,-11.17 -17.167,-13.79 0.441,-1.1 3.898,-2.7 11.035,-2.7 10.218,-0.36 23.109,-1.74 24.207,-9.43 0.883,-5.6 -5.664,-10.37 -9.356,-11.68 l -4.879,-1.66 c -5.937,-2.02 -11.578,-3.92 -18.086,-7.62 -10.058,-6.43 -20.156,-16.42 -20.25,-16.52 -7.179,-8.06 -6.621,-10.44 -6.605,-10.47 0.016,0 0.84,-0.86 5.531,-0.86 2.75,0 5.809,0.27 8.774,0.53 4.972,0.42 8.484,0.72 11.312,0.39 4.102,-0.41 7.375,-4.38 8.27,-10.11 1.082,-6.82 -1.176,-20.17 -16.414,-26.87 l -17.266,-7.59 c -3.656,-1.61 -6.77,-2.99 -9.582,-4.27 -4.688,-2.51 -13.918,-8.23 -19.746,-16.59 -0.82,-1.18 -0.86,-1.72 -0.86,-1.72 1.383,-1.07 10.231,-1.1 16.086,-1.12 4.196,0 8.493,-0.03 12.293,-0.34 0.039,0 0.078,0 0.118,0 5.398,0 10.878,2 14.878,3.48 4.438,1.64 8.645,3.17 12.364,3.17 l 1.328,-0.07 c 8.949,-0.93 13.871,-2.87 15.879,-10.9 2.519,-10.12 -7.633,-18.5 -10.953,-21.25 -1.547,-2.17 -5.332,-4.49 -8.121,-5.7 -9.422,-5.85 -19.29,-10.14 -24.34,-12.19 -32.985,-17.72 -74.95,-43.852 -92.289,-63.227 -6.828,-7.676 -5.953,-12.094 -5.262,-13.653 0.734,-1.64 2.668,-2.637 4.09,-2.637 l 2.812,1.047 c 4.907,2.301 12.36,5.805 22.703,5.805 3.161,0 6.403,-0.332 9.653,-0.973 11.406,-2.277 30.484,2.227 41.687,5.141 4.668,1.02 9.489,5.293 13.754,9.047 5.192,4.605 8.516,7.418 12.129,7.418 h 2.953 l 2.547,-3.324 c 8.539,-13.914 2.645,-32.473 -16.172,-50.907 -9.215,-12.394 -29.336,-24.265 -47.09,-34.746 -9.859,-5.828 -19.101,-11.301 -24.894,-15.98 -17.617,-14.242 -25.696,-33.418 -30.899,-73.223 -1.832,-14.168 0,-17.055 0.387,-17.492 1.227,0.023 5.391,3.195 9.149,8.387 5.546,6.675 18.023,21.683 50.191,21.683 23.648,0 31.598,5.367 39.297,10.582 1.953,1.328 3.898,2.633 6.027,3.832 4.035,2.282 6.914,3.301 9.301,3.301 1.773,0 4.258,-0.562 6.012,-3.195 3.578,-5.215 -0.09,-15.774 -1.293,-18.863 -9.539,-21.204 -23.934,-27.692 -40.602,-35.243 -7.277,-3.265 -14.758,-6.644 -22.676,-11.625 -1.707,-1.257 -3.597,-3.121 -7.742,-7.265 l -0.941,-0.922 c -6.239,-6.156 -6.063,-8.688 -6.063,-8.715 l 1.84,0.133 c 3.07,0.504 6.957,-0.106 11.445,-0.903 4.336,-0.765 8.645,-1.531 12.942,-1.531 l 1.289,0.024 c 9.805,0.308 18.012,2.304 29.156,7.132 3.836,1.692 7.031,3.887 9.848,5.809 6.195,4.266 12.347,7.18 17.984,3.574 5.063,-3.195 6.469,-9.918 4.129,-19.937 -0.277,-6.192 -8.551,-17.571 -12.5,-21.989 -7.828,-8.832 -47.48,-34.261 -60.16,-40.062 -1.754,-0.801 -3.457,-1.641 -5.477,-2.734 -0.242,-0.184 -0.82,-0.567 -1.507,-0.926 -16.977,-9.641 -28.411,-24.367 -28.52,-24.524 -5.09,-7.285 -8.375,-15.168 -7.824,-17.207 0.355,0.536 2.285,0.774 6.594,2.969 11.378,5.781 28.253,3.613 41.855,0.723 9.484,-2 19.93,-3.379 24.293,-1.242 1.098,0.57 2.359,1.117 3.848,1.117 h 2.464 l 2.215,-2.317 c 3.282,-3.957 2.313,-12.578 1.442,-17.351 0.039,-5.11 -0.95,-11.555 -2.2,-14.113 -5.675,-11.282 -10.625,-13.243 -23.871,-18.497 -3.507,-1.394 -7.64,-3.007 -12.625,-5.168 -12.363,-5.593 -35.324,-16.812 -42.789,-23.23 -9.148,-7.883 -13.961,-18.75 -16.007,-24.523 l -0.922,-2.508 c -0.61,-1.629 -1.407,-3.75 -1.43,-4.621 0.242,0.129 1.328,-0.262 4.375,-0.262 4.348,0 11.047,0.672 22.406,2.226 10.555,1.438 31.031,8.329 40.656,14.786 7.883,5.312 21.911,3.527 28.153,-3.536 2.941,-3.332 4.246,-7.46 3.769,-11.98 l -0.382,-1.496 c -9.911,-23.457 -35.247,-36.535 -55.973,-39.113 -24.969,-3.075 -29.32,-8.922 -30.039,-11.305 -1.063,-3.559 3.363,-7.461 3.402,-7.492 5.574,-3.758 9.625,-7.715 12.477,-10.703 1.808,-1.907 7.633,-8.75 6.918,-17.059 -0.59,-6.984 -5.512,-12.656 -14.653,-16.926 l -0.609,1.27 0.555,-1.301 -5.176,-2.289 c -10.445,-4.961 -34.426,-18.09 -42.024,-37.289 -6.824,-17.25 -11.605,-31.5 -14.242,-42.281 l -0.469,-2.821 c -1.429,-7.851 -0.613,-14.621 2.184,-18.09 2.441,-3.082 6.461,-2.101 9.449,1.782 15.7,20.148 69.25,46.918 87.282,48.527 2.757,0.242 5.785,0.41 9.031,0.59 17.746,0.961 41.972,2.301 56.89,18.043 10.844,11.457 19.672,17.519 25.539,17.519 4.375,0 7.2,-3.089 7.2,-7.851 v -31.11 c 0.031,-1.261 0.031,-2.371 -0.008,-3.019 L 434.68,246.219 c -0.5,-39.43 -3.735,-68.547 -17.922,-82.707 -3.903,-3.942 -8.504,-8.071 -13.375,-12.461 -11.289,-10.121 -24.059,-21.621 -32.176,-34.18 -1.473,-2.269 -2.965,-4.68 -4.512,-7.16 l -1.047,-1.66 C 355.754,92.1719 342.379,70.7188 319.664,58.0898 Z m 392.879,-10.7109 -430.516,0.25 h -0.254 l -54.914,0.0195 0.016,10.5 54.898,-0.0273 c 41.739,2.1484 60.954,32.957 74.989,55.4569 l 1.047,1.684 c 1.586,2.527 3.109,4.976 4.601,7.277 8.867,13.742 22.195,25.731 33.953,36.313 4.731,4.25 9.196,8.238 12.989,12.039 12.418,12.41 14.476,45.078 14.843,75.398 l 0.125,106.781 c 0.055,0.809 0.028,1.578 0.016,2.559 l -0.016,27.07 c -2.836,-1.679 -7.578,-5.238 -14.648,-12.73 -17.777,-18.77 -44.422,-20.231 -63.867,-21.297 -3.207,-0.184 -6.114,-0.332 -8.742,-0.57 -15.653,-1.403 -66.161,-26.84 -79.93,-44.512 -7.055,-9.121 -19.481,-9.942 -25.899,-1.91 -3.886,4.851 -5.625,11.941 -5.074,20.351 h -0.394 l 1.543,8.641 c 2.765,11.578 7.75,26.508 14.894,44.617 10.942,27.641 47.762,43.281 52.617,45.254 5.473,2.59 8.332,5.371 8.594,8.281 0.254,2.957 -1.855,6.649 -4.066,8.977 -2.649,2.75 -6.047,6.082 -11.149,9.539 -0.754,0.586 -10.304,8.41 -7.176,18.867 2.957,9.891 15.282,15.82 38.79,18.711 17.492,2.156 38.738,12.891 47.261,31.992 0,1.27 -0.394,2.297 -1.254,3.27 -2.859,3.222 -10.847,4.218 -14.453,1.758 -11.109,-7.43 -32.972,-14.833 -45.094,-16.465 -11.835,-1.629 -18.968,-2.325 -23.812,-2.325 -4.781,0 -10.09,0.598 -13.102,4.934 -3.199,4.629 -1.316,9.648 0.329,14.063 l 0.914,2.429 c 2.371,6.699 8.035,19.434 19.015,28.899 10.074,8.691 39.531,22.246 45.332,24.871 5.254,2.25 9.465,3.91 13.039,5.324 12.582,4.98 14.512,5.754 18.36,13.387 0.269,0.754 1.152,5.121 1.187,10.461 0.438,2.578 0.653,4.91 0.707,6.699 -6.422,-1.66 -17.172,-0.125 -26.734,1.867 -12.539,2.652 -26.231,4.637 -34.949,0.203 -10.789,-5.519 -17.59,-4.211 -20.668,1.641 -4.071,7.801 3.703,20.965 8.703,28.125 0.664,0.871 13,16.777 31.961,27.508 l 1.508,0.941 c 2.25,1.211 4.128,2.156 6.109,3.074 13.648,6.239 50.754,30.758 56.707,37.512 5.133,5.695 9.859,13.98 9.996,16.488 1.496,6.778 0.848,9.281 0.504,9.692 -1.461,0.125 -4.094,-1.871 -6.359,-3.426 -3.04,-2.098 -6.829,-4.703 -11.59,-6.781 -12.492,-5.418 -21.774,-7.664 -33.121,-8.028 l -1.461,-0.023 c -5.27,0 -10.278,0.894 -14.293,1.613 -3.133,0.559 -5.535,1.02 -7.543,1.02 -1.867,-0.207 -2.711,-0.254 -3.516,-0.254 -5.016,0 -8.976,2.402 -10.625,6.496 -3.445,8.383 5.496,17.23 8.438,20.121 5.296,5.238 7.504,7.465 10.168,9.355 8.793,5.547 16.605,9.075 24.16,12.5 15.988,7.211 27.508,12.426 35.304,29.739 0.797,2.074 1.368,4.293 1.692,6.117 -0.285,-0.16 -0.586,-0.34 -0.91,-0.52 -1.879,-1.047 -3.571,-2.195 -5.285,-3.375 -8.192,-5.519 -18.325,-12.402 -45.184,-12.402 -27.254,0 -37.16,-11.883 -41.918,-17.613 -2.559,-3.551 -9.832,-12.426 -17.523,-12.426 -3.008,0 -5.758,1.254 -7.766,3.527 -3.809,4.321 -4.676,12.043 -2.902,25.774 5.597,42.879 14.679,63.82 34.695,80 6.383,5.168 15.941,10.847 26.07,16.824 16.992,10.023 36.164,21.351 44.645,32.656 6.992,6.93 20.679,22.293 16.691,35.078 -1.078,-0.976 -2.383,-2.125 -3.273,-2.918 -5.305,-4.707 -11.239,-9.945 -18.348,-11.453 -11.797,-3.097 -32.469,-7.949 -46.16,-5.242 -11.024,2.223 -19.902,-1.227 -25.875,-4.066 l -1.996,-0.922 c -7.031,-3.09 -15.774,0.797 -18.903,7.75 -1.894,4.218 -3.503,13.086 7.016,24.879 18.242,20.422 61.379,47.344 95.648,65.734 4.333,1.79 14.176,6 23.165,11.58 l 1.218,0.64 c 2.106,0.92 4.219,2.4 5.059,3.48 6.129,5.21 8.848,9.07 8.262,11.45 -0.5,1.98 -0.586,2.38 -6.829,3.02 -0.011,0 -0.027,0 -0.027,0 -2.066,0 -5.879,-1.41 -8.937,-2.53 -5.965,-2.18 -11.813,-4.14 -17.68,-4.14 l -1.723,0.05 c -3.605,0.31 -7.609,0.31 -11.504,0.31 -12.214,0.05 -21.812,0.1 -25.457,7.1 -1.339,2.58 -2.132,6.77 1.637,12.2 7.086,10.14 17.887,16.9 23.703,19.98 3.145,1.47 6.305,2.85 10,4.49 l 17.254,7.56 c 11.805,5.22 10.371,15.27 10.293,15.68 -0.094,0.61 -0.234,1.07 -0.348,1.4 -2.179,0.11 -4.707,-0.17 -7.429,-0.43 -3.809,-0.33 -7.192,-0.64 -10.227,-0.64 -3.262,0 -11.926,0 -15.09,7.09 -3.238,7.23 2.504,15.14 8.543,21.92 0.325,0.32 11.242,11.12 22.477,18.29 7.605,4.34 13.973,6.5 20.152,8.58 l 3.91,1.35 c -2.211,0.45 -5.5,0.86 -10.347,1.04 -0.039,0 -0.086,0 -0.137,0 -7.133,0 -16.094,1.24 -19.902,7.03 -2.036,3.11 -2.274,6.87 -0.684,10.58 3.469,6.8 15.973,15.05 21.195,18.28 2.235,1.47 12.485,8.55 16.395,12.48 3.812,3.55 5.281,5.38 5.812,6.31 -1.351,1.31 -4.089,3.35 -5.535,4.44 -3.832,2.86 -7.808,5.83 -10.668,9.43 -3.847,4.76 -3.703,8.78 -2.89,11.31 0.625,2 2.511,5.56 8.066,7.15 2.488,0.48 4.141,0.63 5.934,0.63 6.761,0 9.828,7.1 17.3,40.03 l 0.571,2.46 c 1.812,8.11 3.402,15.14 12.129,15.21 l 6.507,-0.15 1.254,-5.59 c 0.063,-0.37 3.219,-16.81 7.832,-35.2 3.536,-9.18 6.36,-9.18 8.836,-9.18 2.239,0 4.145,-0.21 5.848,-0.61 4.238,-1.08 7.176,-3.58 8.359,-7.05 0.84,-2.58 1.036,-6.62 -2.839,-11.47 -1.274,-1.57 -3.258,-3.4 -5.415,-5.31 -1.605,-1.43 -5.035,-4.47 -5.691,-5.59 -0.223,-1.25 0.145,-1.77 0.262,-1.93 0.742,-1.02 3.902,-2.89 11.015,-3.39 8.079,-0.55 12.942,-3.49 14.465,-8.76 2.071,-7.22 -3.105,-14.55 -17.847,-25.32 -0.372,-4.55 10.777,-14.99 22.847,-22.32 7.051,-5.31 15.75,-13.01 14.746,-22.03 -0.879,-8.02 -8.476,-11.5 -12.109,-13.17 l -3.664,4.07 2.414,-4.65 c -1.359,-0.71 -2.492,-1.38 -3.391,-2 13.672,-6 29.993,-22.22 30.168,-22.37 6.278,-7.04 12.071,-14.99 8.828,-22.23 -3.156,-7.08 -11.847,-7.08 -15.117,-7.08 -2.98,0 -6.34,0.29 -9.57,0.57 -3.723,0.33 -5.996,0.48 -8.066,0.5 -0.129,-0.32 -0.254,-0.78 -0.344,-1.37 -0.078,-0.44 -1.524,-10.54 10.273,-15.73 l 12.207,-5.36 c 19.766,-8.68 26.047,-11.41 35.293,-18.13 14.18,-10.36 13.848,-19.41 12.375,-23.89 -3.105,-9.48 -16.105,-13.73 -32.922,-10.84 -2.461,0.59 -16.152,3.17 -23.789,1.77 -3.875,-0.77 -6.746,-1.54 -8.847,-2.22 1.972,-1.85 7.519,-5.97 23.105,-10.67 17.539,-5.29 45.754,-23.852 55.938,-31.52 12.851,-9.645 25.851,-22.684 27.296,-24.141 6.375,-6.597 11.309,-12.605 14.707,-17.922 8.985,-10.664 7.196,-19.125 5.293,-23.164 -3.105,-6.668 -11.738,-10.332 -18.339,-7.621 -0.586,0.281 -4.649,2.203 -7.297,3.223 -1.387,0.387 -11.66,1.609 -13.485,1.637 -15.625,0.511 -53.613,3.093 -78.703,16.211 0.168,-1.938 0.676,-4.602 1.789,-7.309 1.688,-4.172 9.051,-15.09 20.176,-26.395 2.617,-2.91 5.742,-5.769 9.414,-8.683 4.512,-3.844 8.887,-6.961 13.172,-9.418 14.172,-9.102 30.461,-18.66 36.828,-22.371 10.692,-6.211 21.082,-18.711 26.328,-25.59 7,-9.176 13.828,-31.957 17.391,-58.016 0.109,-5.695 -1.356,-9.746 -4.238,-12.652 -2.969,-2.992 -7.039,-4.5 -12.137,-4.5 -8.274,0 -17.277,4.062 -20.891,6.211 -4.832,3.25 -10.203,5.496 -16.191,6.875 -10.75,2.535 -30.945,10.64 -45.723,16.547 -6.492,2.609 -11.258,4.5 -13.933,5.445 -4.551,1.637 -8.45,-1.738 -9.004,-2.582 -0.039,-0.664 0.847,-4.066 2.488,-7 8.066,-17.855 19.602,-23.043 35.566,-30.258 8.879,-4.012 18.664,-8.437 28.77,-15.515 19.777,-13.86 27.668,-24.571 24.816,-33.653 -1.75,-5.441 -7.05,-8.789 -13.859,-8.789 -3.113,0 -6.063,0.664 -8.555,1.973 -1.082,0.539 -3.582,1.457 -8.426,1.457 -3.769,0 -6.945,-0.547 -7.343,-0.625 -7.09,-1.938 -13.77,-2.914 -20.09,-2.914 -12.246,0 -20.867,3.808 -28.477,7.187 -3.445,1.535 -6.953,3.078 -10.664,4.223 1.836,-3.176 4.953,-8.059 8.586,-12.168 5.926,-6.684 42.996,-31.223 56.668,-37.492 28.457,-12.981 46.738,-34.297 57.512,-67.031 4.558,-13.86 5,-20.735 1.609,-25.422 -3.855,-5.293 -12.207,-3.778 -18.054,-1.043 -3.848,1.765 -5.879,3.359 -7.688,4.726 -3.68,2.844 -6.512,5.039 -15.516,5.039 l -6.484,-0.078 c -14.707,0 -25.762,1.953 -38.723,11.973 -2.234,1.711 -4.187,3.555 -5.906,5.293 -0.324,-4.832 0.274,-11.922 1.153,-14.016 3.816,-7.566 5.75,-8.34 18.328,-13.289 8.8,-3.484 22.05,-8.75 42.433,-19.387 25.547,-13.394 32.039,-31.582 34.813,-39.343 l 1.027,-2.793 c 1.66,-4.473 3.555,-9.485 0.332,-14.082 -2.969,-4.344 -8.281,-4.93 -13.066,-4.93 -4.856,0 -11.973,0.68 -23.809,2.32 -12.051,1.606 -33.898,8.996 -45.078,16.438 -3.645,2.453 -11.672,1.465 -14.504,-1.738 -0.848,-0.969 -1.25,-2.004 -1.25,-3.27 8.547,-19.105 29.805,-29.836 47.297,-31.992 18.914,-2.328 30.293,-6.516 35.789,-13.188 3.352,-3.738 5.02,-8.543 4.727,-13.758 -0.711,-12.179 -12.059,-22.91 -14.336,-24.929 -1.2,-1.442 -1.797,-3.449 -1.387,-5.75 0.762,-4.141 4.68,-8.571 7.891,-10.281 13.105,-6.52 36.562,-20.68 44.921,-41.731 21.262,-53.84 19.153,-68.391 14.297,-75.519 -2.625,-3.891 -6.804,-6.008 -11.758,-6.008 -8.515,0 -18.738,6.418 -26.953,11.547 l -3.367,2.101 c -3.156,1.942 -6.836,4.422 -10.918,7.149 -20,13.492 -46.633,31.332 -70.801,29.589 l -4.433,-0.328 c -31.875,-2.531 -44.004,-1.941 -62.578,12.551 -2.52,1.949 -4.153,2.758 -5.051,3.09 -0.438,-1.422 -0.731,-4.082 -0.574,-6.07 l 0.039,-126.391 c 0.984,-23.191 4.785,-47.73 25.605,-68.551 6.59,-6.59 12.449,-9.91 19.227,-13.777 10.234,-5.793 21.797,-12.371 37.324,-30.9337 9.797,-11.707 45.422,-27.7383 68.488,-28.0977 l 48.055,-0.0195 V 47.3789" /></g></g></svg>